# Blender v3.3.1 OBJ File: ''
# www.blender.org
mtllib Base Puzzle Audio.mtl
o Cylinder
v 0.000000 -0.220485 -0.941292
v 0.000000 0.092888 -1.000000
v 0.183637 -0.220485 -0.923206
v 0.195090 0.092888 -0.980785
v 0.360217 -0.220485 -0.869641
v 0.382683 0.092888 -0.923880
v 0.522954 -0.220485 -0.782656
v 0.555570 0.092888 -0.831470
v 0.665594 -0.220485 -0.665594
v 0.707107 0.092888 -0.707107
v 0.782656 -0.220485 -0.522954
v 0.831470 0.092888 -0.555570
v 0.869641 -0.220485 -0.360217
v 0.923880 0.092888 -0.382683
v 0.923206 -0.220485 -0.183637
v 0.980785 0.092888 -0.195090
v 0.941292 -0.220485 -0.000000
v 1.000000 0.092888 0.000000
v 0.923206 -0.220485 0.183637
v 0.980785 0.092888 0.195090
v 0.869641 -0.220485 0.360217
v 0.923880 0.092888 0.382683
v 0.782656 -0.220485 0.522954
v 0.831470 0.092888 0.555570
v 0.665594 -0.220485 0.665594
v 0.707107 0.092888 0.707107
v 0.522954 -0.220485 0.782656
v 0.555570 0.092888 0.831470
v 0.360217 -0.220485 0.869641
v 0.382683 0.092888 0.923880
v 0.183637 -0.220485 0.923206
v 0.195090 0.092888 0.980785
v 0.000000 -0.220485 0.941292
v 0.000000 0.092888 1.000000
v -0.183637 -0.220485 0.923206
v -0.195090 0.092888 0.980785
v -0.360217 -0.220485 0.869641
v -0.382683 0.092888 0.923880
v -0.522954 -0.220485 0.782656
v -0.555570 0.092888 0.831470
v -0.665594 -0.220485 0.665594
v -0.707107 0.092888 0.707107
v -0.782656 -0.220485 0.522954
v -0.831470 0.092888 0.555570
v -0.869641 -0.220485 0.360217
v -0.923880 0.092888 0.382683
v -0.923206 -0.220485 0.183637
v -0.980785 0.092888 0.195090
v -0.941292 -0.220485 -0.000000
v -1.000000 0.092888 0.000000
v -0.923206 -0.220485 -0.183637
v -0.980785 0.092888 -0.195090
v -0.869641 -0.220485 -0.360217
v -0.923880 0.092888 -0.382683
v -0.782656 -0.220485 -0.522954
v -0.831470 0.092888 -0.555570
v -0.665594 -0.220485 -0.665594
v -0.707107 0.092888 -0.707107
v -0.522954 -0.220485 -0.782656
v -0.555570 0.092888 -0.831470
v -0.360217 -0.220485 -0.869641
v -0.382683 0.092888 -0.923880
v -0.183637 -0.220485 -0.923206
v -0.195090 0.092888 -0.980785
v 0.000000 -0.220388 -0.881301
v 0.000000 0.092985 -0.940009
v 0.171933 -0.220388 -0.864367
v 0.183387 0.092985 -0.921947
v 0.337259 -0.220388 -0.814216
v 0.359726 0.092985 -0.868455
v 0.489625 -0.220388 -0.732775
v 0.522241 0.092985 -0.781589
v 0.623174 -0.220388 -0.623174
v 0.664687 0.092985 -0.664687
v 0.732775 -0.220388 -0.489625
v 0.781589 0.092985 -0.522241
v 0.814216 -0.220388 -0.337259
v 0.868455 0.092985 -0.359726
v 0.864367 -0.220388 -0.171933
v 0.921947 0.092985 -0.183387
v 0.881301 -0.220388 -0.000000
v 0.940009 0.092985 0.000000
v 0.864367 -0.220388 0.171933
v 0.921947 0.092985 0.183387
v 0.814216 -0.220388 0.337259
v 0.868455 0.092985 0.359726
v 0.732775 -0.220388 0.489625
v 0.781589 0.092985 0.522241
v 0.623174 -0.220388 0.623174
v 0.664687 0.092985 0.664687
v 0.489625 -0.220388 0.732775
v 0.522241 0.092985 0.781589
v 0.337259 -0.220388 0.814216
v 0.359726 0.092985 0.868455
v 0.171933 -0.220388 0.864367
v 0.183387 0.092985 0.921947
v 0.000000 -0.220388 0.881301
v -0.000000 0.092985 0.940009
v -0.171933 -0.220388 0.864367
v -0.183387 0.092985 0.921947
v -0.337259 -0.220388 0.814216
v -0.359726 0.092985 0.868455
v -0.489625 -0.220388 0.732775
v -0.522241 0.092985 0.781589
v -0.623174 -0.220388 0.623174
v -0.664687 0.092985 0.664687
v -0.732775 -0.220388 0.489625
v -0.781589 0.092985 0.522241
v -0.814216 -0.220388 0.337259
v -0.868455 0.092985 0.359726
v -0.864367 -0.220388 0.171933
v -0.921947 0.092985 0.183387
v -0.881301 -0.220388 -0.000000
v -0.940009 0.092985 -0.000000
v -0.864367 -0.220388 -0.171933
v -0.921947 0.092985 -0.183387
v -0.814216 -0.220388 -0.337259
v -0.868455 0.092985 -0.359726
v -0.732775 -0.220388 -0.489625
v -0.781589 0.092985 -0.522241
v -0.623174 -0.220388 -0.623174
v -0.664687 0.092985 -0.664687
v -0.489625 -0.220388 -0.732775
v -0.522241 0.092985 -0.781589
v -0.337259 -0.220388 -0.814216
v -0.359726 0.092985 -0.868455
v -0.171933 -0.220388 -0.864367
v -0.183387 0.092985 -0.921947
vt 1.000000 0.500000
vt 1.000000 1.000000
vt 0.968750 1.000000
vt 0.968750 0.500000
vt 0.937500 1.000000
vt 0.937500 0.500000
vt 0.906250 1.000000
vt 0.906250 0.500000
vt 0.875000 1.000000
vt 0.875000 0.500000
vt 0.843750 1.000000
vt 0.843750 0.500000
vt 0.812500 1.000000
vt 0.812500 0.500000
vt 0.781250 1.000000
vt 0.781250 0.500000
vt 0.750000 1.000000
vt 0.750000 0.500000
vt 0.718750 1.000000
vt 0.718750 0.500000
vt 0.687500 1.000000
vt 0.687500 0.500000
vt 0.656250 1.000000
vt 0.656250 0.500000
vt 0.625000 1.000000
vt 0.625000 0.500000
vt 0.593750 1.000000
vt 0.593750 0.500000
vt 0.562500 1.000000
vt 0.562500 0.500000
vt 0.531250 1.000000
vt 0.531250 0.500000
vt 0.500000 1.000000
vt 0.500000 0.500000
vt 0.468750 1.000000
vt 0.468750 0.500000
vt 0.437500 1.000000
vt 0.437500 0.500000
vt 0.406250 1.000000
vt 0.406250 0.500000
vt 0.375000 1.000000
vt 0.375000 0.500000
vt 0.343750 1.000000
vt 0.343750 0.500000
vt 0.312500 1.000000
vt 0.312500 0.500000
vt 0.281250 1.000000
vt 0.281250 0.500000
vt 0.250000 1.000000
vt 0.250000 0.500000
vt 0.218750 1.000000
vt 0.218750 0.500000
vt 0.187500 1.000000
vt 0.187500 0.500000
vt 0.156250 1.000000
vt 0.156250 0.500000
vt 0.125000 1.000000
vt 0.125000 0.500000
vt 0.093750 1.000000
vt 0.093750 0.500000
vt 0.062500 1.000000
vt 0.062500 0.500000
vt 0.031250 1.000000
vt 0.031250 0.500000
vt 0.000000 1.000000
vt 0.000000 0.500000
vt 1.000000 0.500000
vt 0.968750 0.500000
vt 0.968750 1.000000
vt 1.000000 1.000000
vt 0.937500 0.500000
vt 0.937500 1.000000
vt 0.906250 0.500000
vt 0.906250 1.000000
vt 0.875000 0.500000
vt 0.875000 1.000000
vt 0.843750 0.500000
vt 0.843750 1.000000
vt 0.812500 0.500000
vt 0.812500 1.000000
vt 0.781250 0.500000
vt 0.781250 1.000000
vt 0.750000 0.500000
vt 0.750000 1.000000
vt 0.718750 0.500000
vt 0.718750 1.000000
vt 0.687500 0.500000
vt 0.687500 1.000000
vt 0.656250 0.500000
vt 0.656250 1.000000
vt 0.625000 0.500000
vt 0.625000 1.000000
vt 0.593750 0.500000
vt 0.593750 1.000000
vt 0.562500 0.500000
vt 0.562500 1.000000
vt 0.531250 0.500000
vt 0.531250 1.000000
vt 0.500000 0.500000
vt 0.500000 1.000000
vt 0.468750 0.500000
vt 0.468750 1.000000
vt 0.437500 0.500000
vt 0.437500 1.000000
vt 0.406250 0.500000
vt 0.406250 1.000000
vt 0.375000 0.500000
vt 0.375000 1.000000
vt 0.343750 0.500000
vt 0.343750 1.000000
vt 0.312500 0.500000
vt 0.312500 1.000000
vt 0.281250 0.500000
vt 0.281250 1.000000
vt 0.250000 0.500000
vt 0.250000 1.000000
vt 0.218750 0.500000
vt 0.218750 1.000000
vt 0.187500 0.500000
vt 0.187500 1.000000
vt 0.156250 0.500000
vt 0.156250 1.000000
vt 0.125000 0.500000
vt 0.125000 1.000000
vt 0.093750 0.500000
vt 0.093750 1.000000
vt 0.062500 0.500000
vt 0.062500 1.000000
vt 0.031250 0.500000
vt 0.031250 1.000000
vt 0.000000 0.500000
vt 0.000000 1.000000
vn -0.0000 -0.1841 -0.9829
vn 0.1918 -0.1841 -0.9640
vn 0.3761 -0.1841 -0.9081
vn 0.5461 -0.1841 -0.8173
vn 0.6950 -0.1841 -0.6950
vn 0.8173 -0.1841 -0.5461
vn 0.9081 -0.1841 -0.3761
vn 0.9640 -0.1841 -0.1918
vn 0.9829 -0.1841 0.0000
vn 0.9640 -0.1841 0.1918
vn 0.9081 -0.1841 0.3761
vn 0.8173 -0.1841 0.5461
vn 0.6950 -0.1841 0.6950
vn 0.5461 -0.1841 0.8173
vn 0.3761 -0.1841 0.9081
vn 0.1918 -0.1841 0.9640
vn 0.0000 -0.1841 0.9829
vn -0.1918 -0.1841 0.9640
vn -0.3761 -0.1841 0.9081
vn -0.5461 -0.1841 0.8173
vn -0.6950 -0.1841 0.6950
vn -0.8173 -0.1841 0.5461
vn -0.9081 -0.1841 0.3761
vn -0.9640 -0.1841 0.1918
vn -0.9829 -0.1841 0.0000
vn -0.9640 -0.1841 -0.1918
vn -0.9081 -0.1841 -0.3761
vn -0.8173 -0.1841 -0.5461
vn -0.6950 -0.1841 -0.6950
vn -0.5461 -0.1841 -0.8173
vn -0.3761 -0.1841 -0.9081
vn -0.1918 -0.1841 -0.9640
vn 0.0000 0.1841 0.9829
vn -0.1918 0.1841 0.9640
vn -0.3761 0.1841 0.9081
vn -0.5461 0.1841 0.8173
vn -0.6950 0.1841 0.6950
vn -0.8173 0.1841 0.5461
vn -0.9081 0.1841 0.3761
vn -0.9640 0.1841 0.1918
vn -0.9829 0.1841 0.0000
vn -0.9640 0.1841 -0.1918
vn -0.9081 0.1841 -0.3761
vn -0.8173 0.1841 -0.5461
vn -0.6950 0.1841 -0.6950
vn -0.5461 0.1841 -0.8173
vn -0.3761 0.1841 -0.9081
vn -0.1918 0.1841 -0.9640
vn 0.0000 0.1841 -0.9829
vn 0.1918 0.1841 -0.9640
vn 0.3761 0.1841 -0.9081
vn 0.5461 0.1841 -0.8173
vn 0.6950 0.1841 -0.6950
vn 0.8173 0.1841 -0.5461
vn 0.9081 0.1841 -0.3761
vn 0.9640 0.1841 -0.1918
vn 0.9829 0.1841 0.0000
vn 0.9640 0.1841 0.1918
vn 0.9081 0.1841 0.3761
vn 0.8173 0.1841 0.5461
vn 0.6950 0.1841 0.6950
vn 0.5461 0.1841 0.8173
vn 0.3761 0.1841 0.9081
vn 0.1918 0.1841 0.9640
vn 0.0000 -1.0000 0.0016
vn -0.0003 -1.0000 0.0016
vn 0.0003 1.0000 -0.0016
vn 0.0000 1.0000 -0.0016
vn -0.0006 -1.0000 0.0015
vn 0.0006 1.0000 -0.0015
vn -0.0009 -1.0000 0.0013
vn 0.0009 1.0000 -0.0013
vn -0.0011 -1.0000 0.0011
vn 0.0011 1.0000 -0.0011
vn -0.0013 -1.0000 0.0009
vn 0.0013 1.0000 -0.0009
vn -0.0015 -1.0000 0.0006
vn 0.0015 1.0000 -0.0006
vn -0.0016 -1.0000 0.0003
vn 0.0016 1.0000 -0.0003
vn -0.0016 -1.0000 0.0000
vn 0.0016 1.0000 0.0000
vn -0.0016 -1.0000 -0.0003
vn 0.0016 1.0000 0.0003
vn -0.0015 -1.0000 -0.0006
vn 0.0015 1.0000 0.0006
vn -0.0013 -1.0000 -0.0009
vn 0.0013 1.0000 0.0009
vn -0.0011 -1.0000 -0.0011
vn 0.0011 1.0000 0.0011
vn -0.0009 -1.0000 -0.0013
vn 0.0009 1.0000 0.0013
vn -0.0006 -1.0000 -0.0015
vn 0.0006 1.0000 0.0015
vn -0.0003 -1.0000 -0.0016
vn 0.0003 1.0000 0.0016
vn 0.0000 -1.0000 -0.0016
vn 0.0000 1.0000 0.0016
vn 0.0003 -1.0000 -0.0016
vn -0.0003 1.0000 0.0016
vn 0.0006 -1.0000 -0.0015
vn -0.0006 1.0000 0.0015
vn 0.0009 -1.0000 -0.0013
vn -0.0009 1.0000 0.0013
vn 0.0011 -1.0000 -0.0011
vn -0.0011 1.0000 0.0011
vn 0.0013 -1.0000 -0.0009
vn -0.0013 1.0000 0.0009
vn 0.0015 -1.0000 -0.0006
vn -0.0015 1.0000 0.0006
vn 0.0016 -1.0000 -0.0003
vn -0.0016 1.0000 0.0003
vn 0.0016 -1.0000 0.0000
vn -0.0016 1.0000 0.0000
vn 0.0016 -1.0000 0.0003
vn -0.0016 1.0000 -0.0003
vn 0.0015 -1.0000 0.0006
vn -0.0015 1.0000 -0.0006
vn 0.0013 -1.0000 0.0009
vn -0.0013 1.0000 -0.0009
vn 0.0011 -1.0000 0.0011
vn -0.0011 1.0000 -0.0011
vn 0.0009 -1.0000 0.0013
vn -0.0009 1.0000 -0.0013
vn 0.0006 -1.0000 0.0015
vn -0.0006 1.0000 -0.0015
vn 0.0003 -1.0000 0.0016
vn -0.0003 1.0000 -0.0016
usemtl None
s 1
f 1/1/1 2/2/1 4/3/2 3/4/2
f 3/4/2 4/3/2 6/5/3 5/6/3
f 5/6/3 6/5/3 8/7/4 7/8/4
f 7/8/4 8/7/4 10/9/5 9/10/5
f 9/10/5 10/9/5 12/11/6 11/12/6
f 11/12/6 12/11/6 14/13/7 13/14/7
f 13/14/7 14/13/7 16/15/8 15/16/8
f 15/16/8 16/15/8 18/17/9 17/18/9
f 17/18/9 18/17/9 20/19/10 19/20/10
f 19/20/10 20/19/10 22/21/11 21/22/11
f 21/22/11 22/21/11 24/23/12 23/24/12
f 23/24/12 24/23/12 26/25/13 25/26/13
f 25/26/13 26/25/13 28/27/14 27/28/14
f 27/28/14 28/27/14 30/29/15 29/30/15
f 29/30/15 30/29/15 32/31/16 31/32/16
f 31/32/16 32/31/16 34/33/17 33/34/17
f 33/34/17 34/33/17 36/35/18 35/36/18
f 35/36/18 36/35/18 38/37/19 37/38/19
f 37/38/19 38/37/19 40/39/20 39/40/20
f 39/40/20 40/39/20 42/41/21 41/42/21
f 41/42/21 42/41/21 44/43/22 43/44/22
f 43/44/22 44/43/22 46/45/23 45/46/23
f 45/46/23 46/45/23 48/47/24 47/48/24
f 47/48/24 48/47/24 50/49/25 49/50/25
f 49/50/25 50/49/25 52/51/26 51/52/26
f 51/52/26 52/51/26 54/53/27 53/54/27
f 53/54/27 54/53/27 56/55/28 55/56/28
f 55/56/28 56/55/28 58/57/29 57/58/29
f 57/58/29 58/57/29 60/59/30 59/60/30
f 59/60/30 60/59/30 62/61/31 61/62/31
f 61/62/31 62/61/31 64/63/32 63/64/32
f 63/64/32 64/63/32 2/65/1 1/66/1
f 65/67/33 67/68/34 68/69/34 66/70/33
f 67/68/34 69/71/35 70/72/35 68/69/34
f 69/71/35 71/73/36 72/74/36 70/72/35
f 71/73/36 73/75/37 74/76/37 72/74/36
f 73/75/37 75/77/38 76/78/38 74/76/37
f 75/77/38 77/79/39 78/80/39 76/78/38
f 77/79/39 79/81/40 80/82/40 78/80/39
f 79/81/40 81/83/41 82/84/41 80/82/40
f 81/83/41 83/85/42 84/86/42 82/84/41
f 83/85/42 85/87/43 86/88/43 84/86/42
f 85/87/43 87/89/44 88/90/44 86/88/43
f 87/89/44 89/91/45 90/92/45 88/90/44
f 89/91/45 91/93/46 92/94/46 90/92/45
f 91/93/46 93/95/47 94/96/47 92/94/46
f 93/95/47 95/97/48 96/98/48 94/96/47
f 95/97/48 97/99/49 98/100/49 96/98/48
f 97/99/49 99/101/50 100/102/50 98/100/49
f 99/101/50 101/103/51 102/104/51 100/102/50
f 101/103/51 103/105/52 104/106/52 102/104/51
f 103/105/52 105/107/53 106/108/53 104/106/52
f 105/107/53 107/109/54 108/110/54 106/108/53
f 107/109/54 109/111/55 110/112/55 108/110/54
f 109/111/55 111/113/56 112/114/56 110/112/55
f 111/113/56 113/115/57 114/116/57 112/114/56
f 113/115/57 115/117/58 116/118/58 114/116/57
f 115/117/58 117/119/59 118/120/59 116/118/58
f 117/119/59 119/121/60 120/122/60 118/120/59
f 119/121/60 121/123/61 122/124/61 120/122/60
f 121/123/61 123/125/62 124/126/62 122/124/61
f 123/125/62 125/127/63 126/128/63 124/126/62
f 125/127/63 127/129/64 128/130/64 126/128/63
f 127/129/64 65/131/33 66/132/33 128/130/64
f 1/1/65 3/4/66 67/68/66 65/67/65
f 4/3/67 2/2/68 66/70/68 68/69/67
f 3/4/66 5/6/69 69/71/69 67/68/66
f 6/5/70 4/3/67 68/69/67 70/72/70
f 5/6/69 7/8/71 71/73/71 69/71/69
f 8/7/72 6/5/70 70/72/70 72/74/72
f 7/8/71 9/10/73 73/75/73 71/73/71
f 10/9/74 8/7/72 72/74/72 74/76/74
f 9/10/73 11/12/75 75/77/75 73/75/73
f 12/11/76 10/9/74 74/76/74 76/78/76
f 11/12/75 13/14/77 77/79/77 75/77/75
f 14/13/78 12/11/76 76/78/76 78/80/78
f 13/14/77 15/16/79 79/81/79 77/79/77
f 16/15/80 14/13/78 78/80/78 80/82/80
f 15/16/79 17/18/81 81/83/81 79/81/79
f 18/17/82 16/15/80 80/82/80 82/84/82
f 17/18/81 19/20/83 83/85/83 81/83/81
f 20/19/84 18/17/82 82/84/82 84/86/84
f 19/20/83 21/22/85 85/87/85 83/85/83
f 22/21/86 20/19/84 84/86/84 86/88/86
f 21/22/85 23/24/87 87/89/87 85/87/85
f 24/23/88 22/21/86 86/88/86 88/90/88
f 23/24/87 25/26/89 89/91/89 87/89/87
f 26/25/90 24/23/88 88/90/88 90/92/90
f 25/26/89 27/28/91 91/93/91 89/91/89
f 28/27/92 26/25/90 90/92/90 92/94/92
f 27/28/91 29/30/93 93/95/93 91/93/91
f 30/29/94 28/27/92 92/94/92 94/96/94
f 29/30/93 31/32/95 95/97/95 93/95/93
f 32/31/96 30/29/94 94/96/94 96/98/96
f 31/32/95 33/34/97 97/99/97 95/97/95
f 34/33/98 32/31/96 96/98/96 98/100/98
f 33/34/97 35/36/99 99/101/99 97/99/97
f 36/35/100 34/33/98 98/100/98 100/102/100
f 35/36/99 37/38/101 101/103/101 99/101/99
f 38/37/102 36/35/100 100/102/100 102/104/102
f 37/38/101 39/40/103 103/105/103 101/103/101
f 40/39/104 38/37/102 102/104/102 104/106/104
f 39/40/103 41/42/105 105/107/105 103/105/103
f 42/41/106 40/39/104 104/106/104 106/108/106
f 41/42/105 43/44/107 107/109/107 105/107/105
f 44/43/108 42/41/106 106/108/106 108/110/108
f 43/44/107 45/46/109 109/111/109 107/109/107
f 46/45/110 44/43/108 108/110/108 110/112/110
f 45/46/109 47/48/111 111/113/111 109/111/109
f 48/47/112 46/45/110 110/112/110 112/114/112
f 47/48/111 49/50/113 113/115/113 111/113/111
f 50/49/114 48/47/112 112/114/112 114/116/114
f 49/50/113 51/52/115 115/117/115 113/115/113
f 52/51/116 50/49/114 114/116/114 116/118/116
f 51/52/115 53/54/117 117/119/117 115/117/115
f 54/53/118 52/51/116 116/118/116 118/120/118
f 53/54/117 55/56/119 119/121/119 117/119/117
f 56/55/120 54/53/118 118/120/118 120/122/120
f 55/56/119 57/58/121 121/123/121 119/121/119
f 58/57/122 56/55/120 120/122/120 122/124/122
f 57/58/121 59/60/123 123/125/123 121/123/121
f 60/59/124 58/57/122 122/124/122 124/126/124
f 59/60/123 61/62/125 125/127/125 123/125/123
f 62/61/126 60/59/124 124/126/124 126/128/126
f 61/62/125 63/64/127 127/129/127 125/127/125
f 64/63/128 62/61/126 126/128/126 128/130/128
f 63/64/127 1/66/65 65/131/65 127/129/127
f 2/65/68 64/63/128 128/130/128 66/132/68
