# Blender v3.2.2 OBJ File: ''
# www.blender.org
mtllib Test cards.mtl
o Cube
v 3.122205 -1.781014 0.111240
v 3.122205 -1.532487 0.129280
v 3.628541 -1.532487 0.111240
v 3.122205 -1.762097 0.118144
v 3.122205 -1.708223 0.123996
v 3.315972 -1.762097 0.111240
v 3.318170 -1.740483 0.118222
v 3.307483 -1.696035 0.123112
v 3.414538 -1.675975 0.121655
v 3.315972 -1.532488 0.127907
v 3.480239 -1.532488 0.123996
v 3.122205 -1.627595 0.127907
v 3.318170 -1.628674 0.126338
v 3.455408 -1.623428 0.123112
v 3.589998 -1.627595 0.111240
v 3.480239 -1.708223 0.111240
v 3.589998 -1.532488 0.118144
v 3.545964 -1.628674 0.118222
v 3.455408 -1.696035 0.117841
v 3.122205 1.532487 0.129280
v 3.122205 1.781014 0.111240
v 3.628541 1.532487 0.111240
v 3.122205 1.627595 0.127907
v 3.122205 1.708223 0.123996
v 3.315972 1.532488 0.127907
v 3.318170 1.628674 0.126338
v 3.307483 1.696035 0.123112
v 3.414538 1.675975 0.121655
v 3.315972 1.762097 0.111240
v 3.480239 1.708223 0.111240
v 3.122205 1.762097 0.118144
v 3.318170 1.740483 0.118222
v 3.455408 1.696035 0.117841
v 3.589998 1.532488 0.118144
v 3.480239 1.532488 0.123996
v 3.589998 1.627595 0.111240
v 3.545964 1.628674 0.118222
v 3.455408 1.623428 0.123112
v 3.122205 -1.781014 -0.111240
v 3.628541 -1.532487 -0.111240
v 3.122205 -1.532487 -0.129280
v 3.315972 -1.762097 -0.111240
v 3.480239 -1.708223 -0.111240
v 3.122205 -1.762097 -0.118144
v 3.318170 -1.740483 -0.118222
v 3.455408 -1.696035 -0.117841
v 3.414538 -1.675975 -0.121655
v 3.589998 -1.532488 -0.118144
v 3.480239 -1.532488 -0.123996
v 3.589998 -1.627595 -0.111240
v 3.545964 -1.628674 -0.118222
v 3.455408 -1.623428 -0.123112
v 3.122205 -1.627595 -0.127907
v 3.122205 -1.708223 -0.123996
v 3.315972 -1.532488 -0.127907
v 3.318170 -1.628674 -0.126338
v 3.307483 -1.696035 -0.123112
v 3.122205 1.781014 -0.111240
v 3.122205 1.532487 -0.129280
v 3.628541 1.532487 -0.111240
v 3.122205 1.762097 -0.118144
v 3.122205 1.708223 -0.123996
v 3.315972 1.762097 -0.111240
v 3.318170 1.740483 -0.118222
v 3.307483 1.696035 -0.123112
v 3.414538 1.675975 -0.121655
v 3.315972 1.532488 -0.127907
v 3.480239 1.532488 -0.123996
v 3.122205 1.627595 -0.127907
v 3.318170 1.628674 -0.126338
v 3.455408 1.623428 -0.123112
v 3.589998 1.627595 -0.111240
v 3.480239 1.708223 -0.111240
v 3.589998 1.532488 -0.118144
v 3.545964 1.628674 -0.118222
v 3.455408 1.696035 -0.117841
v -3.122205 -1.781014 0.111240
v -3.628541 -1.532487 0.111240
v -3.122205 -1.532487 0.129280
v -3.315972 -1.762097 0.111240
v -3.480239 -1.708223 0.111240
v -3.122205 -1.762097 0.118144
v -3.318170 -1.740483 0.118222
v -3.455408 -1.696035 0.117841
v -3.414538 -1.675975 0.121655
v -3.589998 -1.532488 0.118144
v -3.480239 -1.532488 0.123996
v -3.589998 -1.627595 0.111240
v -3.545964 -1.628674 0.118222
v -3.455408 -1.623428 0.123112
v -3.122205 -1.627595 0.127907
v -3.122205 -1.708223 0.123996
v -3.315972 -1.532488 0.127907
v -3.318170 -1.628674 0.126338
v -3.307483 -1.696035 0.123112
v -3.122205 1.781014 0.111240
v -3.122205 1.532487 0.129280
v -3.628541 1.532487 0.111240
v -3.122205 1.762097 0.118144
v -3.122205 1.708223 0.123996
v -3.315972 1.762097 0.111240
v -3.318170 1.740483 0.118222
v -3.307483 1.696035 0.123112
v -3.414538 1.675975 0.121655
v -3.315972 1.532488 0.127907
v -3.480239 1.532488 0.123996
v -3.122205 1.627595 0.127907
v -3.318170 1.628674 0.126338
v -3.455408 1.623428 0.123112
v -3.589998 1.627595 0.111240
v -3.480239 1.708223 0.111240
v -3.589998 1.532488 0.118144
v -3.545964 1.628674 0.118222
v -3.455408 1.696035 0.117841
v -3.122205 -1.781014 -0.111240
v -3.122205 -1.532487 -0.129280
v -3.628541 -1.532487 -0.111240
v -3.122205 -1.762097 -0.118144
v -3.122205 -1.708223 -0.123996
v -3.315972 -1.762097 -0.111240
v -3.318170 -1.740483 -0.118222
v -3.307483 -1.696035 -0.123112
v -3.414538 -1.675975 -0.121655
v -3.315972 -1.532488 -0.127907
v -3.480239 -1.532488 -0.123996
v -3.122205 -1.627595 -0.127907
v -3.318170 -1.628674 -0.126338
v -3.455408 -1.623428 -0.123112
v -3.589998 -1.627595 -0.111240
v -3.480239 -1.708223 -0.111240
v -3.589998 -1.532488 -0.118144
v -3.545964 -1.628674 -0.118222
v -3.455408 -1.696035 -0.117841
v -3.122205 1.781014 -0.111240
v -3.628541 1.532487 -0.111240
v -3.122205 1.532487 -0.129280
v -3.315972 1.762097 -0.111240
v -3.480239 1.708223 -0.111240
v -3.122205 1.762097 -0.118144
v -3.318170 1.740483 -0.118222
v -3.455408 1.696035 -0.117841
v -3.414538 1.675975 -0.121655
v -3.589998 1.532488 -0.118144
v -3.480239 1.532488 -0.123996
v -3.589998 1.627595 -0.111240
v -3.545964 1.628674 -0.118222
v -3.455408 1.623428 -0.123112
v -3.122205 1.627595 -0.127907
v -3.122205 1.708223 -0.123996
v -3.315972 1.532488 -0.127907
v -3.318170 1.628674 -0.126338
v -3.307483 1.696035 -0.123112
vt 0.392443 0.767443
vt 0.392443 0.982557
vt 0.607557 0.982557
vt 0.607557 0.767443
vt 0.392443 0.517443
vt 0.392443 0.732557
vt 0.607557 0.732557
vt 0.607557 0.517443
vt 0.642443 0.517443
vt 0.642443 0.732557
vt 0.857557 0.732557
vt 0.857557 0.517443
vt 0.392443 0.017443
vt 0.392443 0.232557
vt 0.607557 0.232557
vt 0.607557 0.017443
vt 0.392443 0.267443
vt 0.392443 0.482557
vt 0.607557 0.482557
vt 0.607557 0.267443
vt 0.142443 0.732557
vt 0.135768 0.732557
vt 0.135692 0.739308
vt 0.142443 0.739232
vt 0.136060 0.750000
vt 0.142443 0.750000
vt 0.125000 0.732557
vt 0.125000 0.738940
vt 0.132372 0.750000
vt 0.385768 0.982557
vt 0.385692 0.989308
vt 0.392443 0.989232
vt 0.386060 1.000000
vt 0.392443 1.000000
vt 0.375000 0.982557
vt 0.375000 0.988940
vt 0.382372 1.000000
vt 0.392443 0.010768
vt 0.385692 0.010692
vt 0.385768 0.017443
vt 0.375000 0.011060
vt 0.375000 0.017443
vt 0.392443 0.000000
vt 0.386060 0.000000
vt 0.375000 0.007372
vt 0.607557 0.989232
vt 0.614308 0.989308
vt 0.614232 0.982557
vt 0.625000 0.988940
vt 0.625000 0.982557
vt 0.607557 1.000000
vt 0.613940 1.000000
vt 0.625000 0.992628
vt 0.857557 0.739232
vt 0.864308 0.739308
vt 0.864232 0.732557
vt 0.875000 0.738940
vt 0.875000 0.732557
vt 0.857557 0.750000
vt 0.863940 0.750000
vt 0.875000 0.742628
vt 0.614232 0.017443
vt 0.614308 0.010692
vt 0.607557 0.010768
vt 0.613940 0.000000
vt 0.607557 0.000000
vt 0.625000 0.017443
vt 0.625000 0.011060
vt 0.617628 0.000000
vt 0.142443 0.517443
vt 0.142443 0.510768
vt 0.135692 0.510692
vt 0.135768 0.517443
vt 0.125000 0.511060
vt 0.125000 0.517443
vt 0.142443 0.500000
vt 0.136060 0.500000
vt 0.125000 0.507372
vt 0.385768 0.232557
vt 0.385692 0.239308
vt 0.392443 0.239232
vt 0.386060 0.250000
vt 0.392443 0.250000
vt 0.375000 0.232557
vt 0.375000 0.238940
vt 0.382372 0.250000
vt 0.392443 0.260768
vt 0.385692 0.260692
vt 0.385768 0.267443
vt 0.375000 0.261060
vt 0.375000 0.267443
vt 0.375000 0.257372
vt 0.864232 0.517443
vt 0.864308 0.510692
vt 0.857557 0.510768
vt 0.863940 0.500000
vt 0.857557 0.500000
vt 0.875000 0.517443
vt 0.875000 0.511060
vt 0.867628 0.500000
vt 0.614232 0.267443
vt 0.614308 0.260692
vt 0.607557 0.260768
vt 0.613940 0.250000
vt 0.607557 0.250000
vt 0.625000 0.267443
vt 0.625000 0.261060
vt 0.617628 0.250000
vt 0.607557 0.239232
vt 0.614308 0.239308
vt 0.614232 0.232557
vt 0.625000 0.238940
vt 0.625000 0.232557
vt 0.625000 0.242628
vt 0.357557 0.732557
vt 0.357557 0.739232
vt 0.364308 0.739308
vt 0.364232 0.732557
vt 0.375000 0.738940
vt 0.375000 0.732557
vt 0.357557 0.750000
vt 0.363940 0.750000
vt 0.377457 0.750000
vt 0.385768 0.732557
vt 0.385692 0.739308
vt 0.392443 0.739232
vt 0.386060 0.750000
vt 0.392443 0.750000
vt 0.392443 0.760768
vt 0.385692 0.760692
vt 0.385768 0.767443
vt 0.375000 0.761060
vt 0.375000 0.767443
vt 0.635768 0.732557
vt 0.635692 0.739308
vt 0.642443 0.739232
vt 0.636060 0.750000
vt 0.642443 0.750000
vt 0.625000 0.732557
vt 0.625000 0.738940
vt 0.625000 0.747543
vt 0.614232 0.767443
vt 0.614308 0.760692
vt 0.607557 0.760768
vt 0.613940 0.750000
vt 0.607557 0.750000
vt 0.625000 0.767443
vt 0.625000 0.761060
vt 0.607557 0.739232
vt 0.614308 0.739308
vt 0.614232 0.732557
vt 0.357557 0.517443
vt 0.364232 0.517443
vt 0.364308 0.510692
vt 0.357557 0.510768
vt 0.363940 0.500000
vt 0.357557 0.500000
vt 0.375000 0.517443
vt 0.375000 0.511060
vt 0.375000 0.502457
vt 0.385768 0.482557
vt 0.385692 0.489308
vt 0.392443 0.489232
vt 0.386060 0.500000
vt 0.392443 0.500000
vt 0.375000 0.482557
vt 0.375000 0.488940
vt 0.392443 0.510768
vt 0.385692 0.510692
vt 0.385768 0.517443
vt 0.642443 0.510768
vt 0.635692 0.510692
vt 0.635768 0.517443
vt 0.625000 0.511060
vt 0.625000 0.517443
vt 0.642443 0.500000
vt 0.636060 0.500000
vt 0.622543 0.500000
vt 0.614232 0.517443
vt 0.614308 0.510692
vt 0.607557 0.510768
vt 0.613940 0.500000
vt 0.607557 0.500000
vt 0.607557 0.489232
vt 0.614308 0.489308
vt 0.614232 0.482557
vt 0.625000 0.488940
vt 0.625000 0.482557
vn -0.0036 -0.0074 1.0000
vn 0.0036 -0.0074 1.0000
vn 0.0036 0.0074 1.0000
vn -0.0036 0.0074 1.0000
vn -0.7809 -0.1505 -0.6062
vn -0.7809 -0.1505 0.6062
vn -0.7809 0.1505 0.6062
vn -0.7809 0.1505 -0.6062
vn -0.0400 0.8218 -0.5684
vn -0.0400 0.8218 0.5684
vn 0.0400 0.8218 0.5684
vn 0.0400 0.8218 -0.5684
vn 0.7809 -0.1505 0.6062
vn 0.7809 -0.1505 -0.6062
vn 0.7809 0.1505 -0.6062
vn 0.7809 0.1505 0.6062
vn 0.0036 -0.0074 -1.0000
vn -0.0036 -0.0074 -1.0000
vn -0.0036 0.0074 -1.0000
vn 0.0036 0.0074 -1.0000
vn 0.0400 -0.8218 0.5684
vn 0.1667 -0.8100 0.5622
vn 0.0509 -0.2198 0.9742
vn 0.0118 -0.2262 0.9740
vn 0.0188 -0.0789 0.9967
vn 0.0049 -0.0788 0.9969
vn 0.3829 -0.7246 0.5730
vn 0.0879 -0.1919 0.9775
vn 0.0348 -0.0768 0.9964
vn 0.0038 -0.0317 0.9995
vn 0.0164 -0.0326 0.9993
vn 0.0155 -0.0078 0.9998
vn 0.0400 -0.0418 0.9983
vn 0.0397 -0.0103 0.9992
vn 0.1202 -0.0271 0.9924
vn 0.1148 -0.1141 0.9868
vn 0.6463 -0.4897 0.5853
vn 0.0155 0.0078 0.9998
vn 0.0164 0.0326 0.9993
vn 0.0038 0.0317 0.9995
vn 0.0188 0.0789 0.9967
vn 0.0049 0.0788 0.9969
vn 0.0397 0.0103 0.9992
vn 0.0400 0.0418 0.9983
vn 0.0348 0.0768 0.9964
vn 0.0118 0.2262 0.9740
vn 0.0509 0.2198 0.9742
vn 0.1667 0.8100 0.5622
vn 0.0879 0.1919 0.9775
vn 0.3829 0.7246 0.5730
vn 0.6463 0.4897 0.5853
vn 0.1148 0.1141 0.9868
vn 0.1202 0.0271 0.9924
vn 0.0400 -0.8218 -0.5684
vn 0.0118 -0.2262 -0.9740
vn 0.0509 -0.2198 -0.9742
vn 0.1667 -0.8100 -0.5622
vn 0.0879 -0.1919 -0.9775
vn 0.3829 -0.7246 -0.5730
vn 0.0049 -0.0788 -0.9969
vn 0.0188 -0.0789 -0.9967
vn 0.0348 -0.0768 -0.9964
vn 0.6463 -0.4897 -0.5853
vn 0.1148 -0.1141 -0.9868
vn 0.1202 -0.0271 -0.9924
vn 0.0400 -0.0418 -0.9983
vn 0.0397 -0.0103 -0.9992
vn 0.0155 -0.0078 -0.9998
vn 0.0164 -0.0326 -0.9993
vn 0.0038 -0.0317 -0.9995
vn 0.1667 0.8100 -0.5622
vn 0.0509 0.2198 -0.9742
vn 0.0118 0.2262 -0.9740
vn 0.0188 0.0789 -0.9967
vn 0.0049 0.0788 -0.9969
vn 0.3829 0.7246 -0.5730
vn 0.0879 0.1919 -0.9775
vn 0.0348 0.0768 -0.9964
vn 0.0038 0.0317 -0.9995
vn 0.0164 0.0326 -0.9993
vn 0.0155 0.0078 -0.9998
vn 0.0400 0.0418 -0.9983
vn 0.0397 0.0103 -0.9992
vn 0.1202 0.0271 -0.9924
vn 0.1148 0.1141 -0.9868
vn 0.6463 0.4897 -0.5853
vn -0.0400 -0.8218 0.5684
vn -0.0118 -0.2262 0.9740
vn -0.0509 -0.2198 0.9742
vn -0.1667 -0.8100 0.5622
vn -0.0879 -0.1919 0.9775
vn -0.3829 -0.7246 0.5730
vn -0.0049 -0.0788 0.9969
vn -0.0188 -0.0789 0.9967
vn -0.0348 -0.0768 0.9964
vn -0.6463 -0.4897 0.5853
vn -0.1148 -0.1141 0.9868
vn -0.1202 -0.0271 0.9924
vn -0.0400 -0.0418 0.9983
vn -0.0397 -0.0103 0.9992
vn -0.0155 -0.0078 0.9998
vn -0.0164 -0.0326 0.9993
vn -0.0038 -0.0317 0.9995
vn -0.1667 0.8100 0.5622
vn -0.0509 0.2198 0.9742
vn -0.0118 0.2262 0.9740
vn -0.0188 0.0789 0.9967
vn -0.0049 0.0788 0.9969
vn -0.3829 0.7246 0.5730
vn -0.0879 0.1919 0.9775
vn -0.0348 0.0768 0.9964
vn -0.0038 0.0317 0.9995
vn -0.0164 0.0326 0.9993
vn -0.0155 0.0078 0.9998
vn -0.0400 0.0418 0.9983
vn -0.0397 0.0103 0.9992
vn -0.1202 0.0271 0.9924
vn -0.1148 0.1141 0.9868
vn -0.6463 0.4897 0.5853
vn -0.0400 -0.8218 -0.5684
vn -0.1667 -0.8100 -0.5622
vn -0.0509 -0.2198 -0.9742
vn -0.0118 -0.2262 -0.9740
vn -0.0188 -0.0789 -0.9967
vn -0.0049 -0.0788 -0.9969
vn -0.3829 -0.7246 -0.5730
vn -0.0879 -0.1919 -0.9775
vn -0.0348 -0.0768 -0.9964
vn -0.0038 -0.0317 -0.9995
vn -0.0164 -0.0326 -0.9993
vn -0.0155 -0.0078 -0.9998
vn -0.0400 -0.0418 -0.9983
vn -0.0397 -0.0103 -0.9992
vn -0.1202 -0.0271 -0.9924
vn -0.1148 -0.1141 -0.9868
vn -0.6463 -0.4897 -0.5853
vn -0.0118 0.2262 -0.9740
vn -0.0509 0.2198 -0.9742
vn -0.1667 0.8100 -0.5622
vn -0.0879 0.1919 -0.9775
vn -0.3829 0.7246 -0.5730
vn -0.0049 0.0788 -0.9969
vn -0.0188 0.0789 -0.9967
vn -0.0348 0.0768 -0.9964
vn -0.6463 0.4897 -0.5853
vn -0.1148 0.1141 -0.9868
vn -0.1202 0.0271 -0.9924
vn -0.0400 0.0418 -0.9983
vn -0.0397 0.0103 -0.9992
vn -0.0155 0.0078 -0.9998
vn -0.0164 0.0326 -0.9993
vn -0.0038 0.0317 -0.9995
usemtl None
s 1
f 79/1/1 2/2/2 20/3/3 97/4/4
f 117/5/5 78/6/6 98/7/7 135/8/8
f 134/9/9 96/10/10 21/11/11 58/12/12
f 3/13/13 40/14/14 60/15/15 22/16/16
f 41/17/17 116/18/18 136/19/19 59/20/20
f 1/21/21 6/22/22 7/23/23 4/24/24
f 4/24/24 7/23/23 8/25/25 5/26/26
f 6/22/22 16/27/27 19/28/28 7/23/23
f 7/23/23 19/28/28 9/29/29 8/25/25
f 2/2/2 12/30/30 13/31/31 10/32/32
f 10/32/32 13/31/31 14/33/33 11/34/34
f 12/30/30 5/35/26 8/36/25 13/31/31
f 13/31/31 8/36/25 9/37/29 14/33/33
f 3/13/13 17/38/35 18/39/36 15/40/37
f 15/40/37 18/39/36 19/41/28 16/42/27
f 17/38/35 11/43/34 14/44/33 18/39/36
f 18/39/36 14/44/33 9/45/29 19/41/28
f 20/3/3 25/46/38 26/47/39 23/48/40
f 23/48/40 26/47/39 27/49/41 24/50/42
f 25/46/38 35/51/43 38/52/44 26/47/39
f 26/47/39 38/52/44 28/53/45 27/49/41
f 21/11/11 31/54/46 32/55/47 29/56/48
f 29/56/48 32/55/47 33/57/49 30/58/50
f 31/54/46 24/59/42 27/60/41 32/55/47
f 32/55/47 27/60/41 28/61/45 33/57/49
f 22/16/16 36/62/51 37/63/52 34/64/53
f 34/64/53 37/63/52 38/65/44 35/66/43
f 36/62/51 30/67/50 33/68/49 37/63/52
f 37/63/52 33/68/49 28/69/45 38/65/44
f 39/70/54 44/71/55 45/72/56 42/73/57
f 42/73/57 45/72/56 46/74/58 43/75/59
f 44/71/55 54/76/60 57/77/61 45/72/56
f 45/72/56 57/77/61 47/78/62 46/74/58
f 40/14/14 50/79/63 51/80/64 48/81/65
f 48/81/65 51/80/64 52/82/66 49/83/67
f 50/79/63 43/84/59 46/85/58 51/80/64
f 51/80/64 46/85/58 47/86/62 52/82/66
f 41/17/17 55/87/68 56/88/69 53/89/70
f 53/89/70 56/88/69 57/90/61 54/91/60
f 55/87/68 49/83/67 52/82/66 56/88/69
f 56/88/69 52/82/66 47/92/62 57/90/61
f 58/12/12 63/93/71 64/94/72 61/95/73
f 61/95/73 64/94/72 65/96/74 62/97/75
f 63/93/71 73/98/76 76/99/77 64/94/72
f 64/94/72 76/99/77 66/100/78 65/96/74
f 59/20/20 69/101/79 70/102/80 67/103/81
f 67/103/81 70/102/80 71/104/82 68/105/83
f 69/101/79 62/106/75 65/107/74 70/102/80
f 70/102/80 65/107/74 66/108/78 71/104/82
f 60/15/15 74/109/84 75/110/85 72/111/86
f 72/111/86 75/110/85 76/112/77 73/113/76
f 74/109/84 68/105/83 71/104/82 75/110/85
f 75/110/85 71/104/82 66/114/78 76/112/77
f 77/115/87 82/116/88 83/117/89 80/118/90
f 80/118/90 83/117/89 84/119/91 81/120/92
f 82/116/88 92/121/93 95/122/94 83/117/89
f 83/117/89 95/122/94 85/123/95 84/119/91
f 78/6/6 88/124/96 89/125/97 86/126/98
f 86/126/98 89/125/97 90/127/99 87/128/100
f 88/124/96 81/120/92 84/119/91 89/125/97
f 89/125/97 84/119/91 85/123/95 90/127/99
f 79/1/1 93/129/101 94/130/102 91/131/103
f 91/131/103 94/130/102 95/132/94 92/133/93
f 93/129/101 87/128/100 90/127/99 94/130/102
f 94/130/102 90/127/99 85/123/95 95/132/94
f 96/10/10 101/134/104 102/135/105 99/136/106
f 99/136/106 102/135/105 103/137/107 100/138/108
f 101/134/104 111/139/109 114/140/110 102/135/105
f 102/135/105 114/140/110 104/141/111 103/137/107
f 97/4/4 107/142/112 108/143/113 105/144/114
f 105/144/114 108/143/113 109/145/115 106/146/116
f 107/142/112 100/147/108 103/148/107 108/143/113
f 108/143/113 103/148/107 104/141/111 109/145/115
f 98/7/7 112/149/117 113/150/118 110/151/119
f 110/151/119 113/150/118 114/140/110 111/139/109
f 112/149/117 106/146/116 109/145/115 113/150/118
f 113/150/118 109/145/115 104/141/111 114/140/110
f 115/152/120 120/153/121 121/154/122 118/155/123
f 118/155/123 121/154/122 122/156/124 119/157/125
f 120/153/121 130/158/126 133/159/127 121/154/122
f 121/154/122 133/159/127 123/160/128 122/156/124
f 116/18/18 126/161/129 127/162/130 124/163/131
f 124/163/131 127/162/130 128/164/132 125/165/133
f 126/161/129 119/166/125 122/167/124 127/162/130
f 127/162/130 122/167/124 123/160/128 128/164/132
f 117/5/5 131/168/134 132/169/135 129/170/136
f 129/170/136 132/169/135 133/159/127 130/158/126
f 131/168/134 125/165/133 128/164/132 132/169/135
f 132/169/135 128/164/132 123/160/128 133/159/127
f 134/9/9 139/171/137 140/172/138 137/173/139
f 137/173/139 140/172/138 141/174/140 138/175/141
f 139/171/137 149/176/142 152/177/143 140/172/138
f 140/172/138 152/177/143 142/178/144 141/174/140
f 135/8/8 145/179/145 146/180/146 143/181/147
f 143/181/147 146/180/146 147/182/148 144/183/149
f 145/179/145 138/175/141 141/174/140 146/180/146
f 146/180/146 141/174/140 142/178/144 147/182/148
f 136/19/19 150/184/150 151/185/151 148/186/152
f 148/186/152 151/185/151 152/187/143 149/188/142
f 150/184/150 144/183/149 147/182/148 151/185/151
f 151/185/151 147/182/148 142/178/144 152/187/143
f 39/70/54 42/73/57 6/22/22 1/21/21
f 42/73/57 43/75/59 16/27/27 6/22/22
f 43/84/59 50/79/63 15/40/37 16/42/27
f 50/79/63 40/14/14 3/13/13 15/40/37
f 2/2/2 10/32/32 25/46/38 20/3/3
f 10/32/32 11/34/34 35/51/43 25/46/38
f 11/43/34 17/38/35 34/64/53 35/66/43
f 17/38/35 3/13/13 22/16/16 34/64/53
f 21/11/11 29/56/48 63/93/71 58/12/12
f 29/56/48 30/58/50 73/98/76 63/93/71
f 30/67/50 36/62/51 72/111/86 73/113/76
f 36/62/51 22/16/16 60/15/15 72/111/86
f 59/20/20 67/103/81 55/87/68 41/17/17
f 67/103/81 68/105/83 49/83/67 55/87/68
f 68/105/83 74/109/84 48/81/65 49/83/67
f 74/109/84 60/15/15 40/14/14 48/81/65
f 115/152/120 118/155/123 44/71/55 39/70/54
f 118/155/123 119/157/125 54/76/60 44/71/55
f 119/166/125 126/161/129 53/89/70 54/91/60
f 126/161/129 116/18/18 41/17/17 53/89/70
f 58/12/12 61/95/73 139/171/137 134/9/9
f 61/95/73 62/97/75 149/176/142 139/171/137
f 62/106/75 69/101/79 148/186/152 149/188/142
f 69/101/79 59/20/20 136/19/19 148/186/152
f 135/8/8 143/181/147 131/168/134 117/5/5
f 143/181/147 144/183/149 125/165/133 131/168/134
f 144/183/149 150/184/150 124/163/131 125/165/133
f 150/184/150 136/19/19 116/18/18 124/163/131
f 77/115/87 80/118/90 120/153/121 115/152/120
f 80/118/90 81/120/92 130/158/126 120/153/121
f 81/120/92 88/124/96 129/170/136 130/158/126
f 88/124/96 78/6/6 117/5/5 129/170/136
f 134/9/9 137/173/139 101/134/104 96/10/10
f 137/173/139 138/175/141 111/139/109 101/134/104
f 138/175/141 145/179/145 110/151/119 111/139/109
f 145/179/145 135/8/8 98/7/7 110/151/119
f 97/4/4 105/144/114 93/129/101 79/1/1
f 105/144/114 106/146/116 87/128/100 93/129/101
f 106/146/116 112/149/117 86/126/98 87/128/100
f 112/149/117 98/7/7 78/6/6 86/126/98
f 1/21/21 4/24/24 82/116/88 77/115/87
f 4/24/24 5/26/26 92/121/93 82/116/88
f 5/35/26 12/30/30 91/131/103 92/133/93
f 12/30/30 2/2/2 79/1/1 91/131/103
f 96/10/10 99/136/106 31/54/46 21/11/11
f 99/136/106 100/138/108 24/59/42 31/54/46
f 100/147/108 107/142/112 23/48/40 24/50/42
f 107/142/112 97/4/4 20/3/3 23/48/40
f 39/70/54 1/21/21 77/115/87 115/152/120
